<svg height="512" viewBox="0 0 512 512" width="512" xmlns="http://www.w3.org/2000/svg"><path d="m76.833 435.167h364.667a20 20 0 0 0 20-20v-368h-314.667l-70 70z" fill="#f1e8dc"/><circle cx="411.264" cy="74.168" fill="#9a99a1" r="7.5"/><circle cx="332.264" cy="74.168" fill="#9a99a1" r="7.5"/><circle cx="253.264" cy="74.168" fill="#9a99a1" r="7.5"/><circle cx="174.264" cy="74.168" fill="#9a99a1" r="7.5"/><path d="m258.41 216.38h52a0 0 0 0 1 0 0v30a5 5 0 0 1 -5 5h-42a5 5 0 0 1 -5-5v-30a0 0 0 0 1 0 0z" fill="#54c1ed" transform="matrix(0 1 -1 0 518.29 -50.53)"/><path d="m328.91 176.88h121a5 5 0 0 1 5 5v30a0 0 0 0 1 0 0h-126a5 5 0 0 1 -5-5v-25a5 5 0 0 1 5-5z" fill="#f4644d" transform="matrix(0 1 -1 0 583.79 -195.03)"/><path d="m280.41 203.38h78a0 0 0 0 1 0 0v35a0 0 0 0 1 0 0h-73a5 5 0 0 1 -5-5v-30a0 0 0 0 1 0 0z" fill="#8bc932" transform="matrix(0 1 -1 0 540.29 -98.53)"/><path d="m301.91 189.88h105a0 0 0 0 1 0 0v35a0 0 0 0 1 0 0h-100a5 5 0 0 1 -5-5v-30a0 0 0 0 1 0 0z" fill="#f9d36b" transform="matrix(0 1 -1 0 561.79 -147.03)"/><path d="m126.83 435.17h-50v-318l30-30v328a20.007 20.007 0 0 0 20 20z" fill="#efdbc6"/><path d="m76.833 117.168h50a20 20 0 0 0 20-20v-50z" fill="#e5cfbd"/><path d="m233.034 195.168h-110a7.5 7.5 0 1 1 0-15h110a7.5 7.5 0 0 1 0 15z" fill="#9a99a1"/><path d="m202.889 229.169h-39.134a7.5 7.5 0 0 1 0-15h39.134a7.5 7.5 0 0 1 0 15z" fill="#9a99a1"/><path d="m140.535 229.169h-17.5a7.5 7.5 0 0 1 0-15h17.5a7.5 7.5 0 0 1 0 15z" fill="#9a99a1"/><path d="m233.034 161.164h-82a7.5 7.5 0 0 1 0-15h82a7.5 7.5 0 0 1 0 15z" fill="#9a99a1"/><circle cx="130.534" cy="153.668" fill="#9a99a1" r="7.5"/><circle cx="225.534" cy="221.668" fill="#9a99a1" r="7.5"/><path d="m396.91 355h-110a7.5 7.5 0 0 1 0-15h110a7.5 7.5 0 1 1 0 15z" fill="#9a99a1"/><path d="m366.765 389h-39.133a7.5 7.5 0 0 1 0-15h39.133a7.5 7.5 0 0 1 0 15z" fill="#9a99a1"/><path d="m304.411 389h-17.5a7.5 7.5 0 0 1 0-15h17.5a7.5 7.5 0 0 1 0 15z" fill="#9a99a1"/><path d="m396.91 321h-82a7.5 7.5 0 0 1 0-15h82a7.5 7.5 0 0 1 0 15z" fill="#9a99a1"/><circle cx="294.41" cy="313.498" fill="#9a99a1" r="7.5"/><circle cx="389.41" cy="381.502" fill="#9a99a1" r="7.5"/><path d="m260.5 383.793v-29.586a10 10 0 0 0 -9.094-9.959l-22.067-2.007a89.381 89.381 0 0 0 -6.386-15.35l14.2-17.042a10 10 0 0 0 -.611-13.473l-20.921-20.921a10 10 0 0 0 -13.473-.611l-17.042 14.2a89.381 89.381 0 0 0 -15.35-6.386l-2.007-22.067a10 10 0 0 0 -9.959-9.094h-29.583a10 10 0 0 0 -9.959 9.094l-2.007 22.067a89.381 89.381 0 0 0 -15.35 6.386l-17.042-14.2a10 10 0 0 0 -13.473.611l-20.921 20.921a10 10 0 0 0 -.611 13.473l14.2 17.042a89.381 89.381 0 0 0 -6.386 15.35l-22.067 2.007a10 10 0 0 0 -9.094 9.959v29.586a10 10 0 0 0 9.094 9.959l22.067 2.007a89.381 89.381 0 0 0 6.386 15.35l-14.2 17.042a10 10 0 0 0 .611 13.473l20.921 20.921a10 10 0 0 0 13.473.611l17.042-14.2a89.381 89.381 0 0 0 15.35 6.386l2.007 22.067a10 10 0 0 0 9.959 9.094h29.586a10 10 0 0 0 9.959-9.094l2.007-22.067a89.381 89.381 0 0 0 15.35-6.386l17.042 14.2a10 10 0 0 0 13.473-.611l20.921-20.921a10 10 0 0 0 .611-13.473l-14.2-17.042a89.381 89.381 0 0 0 6.386-15.35l22.067-2.007a10 10 0 0 0 9.091-9.959zm-117.5 27.741a42.534 42.534 0 1 1 42.534-42.534 42.584 42.584 0 0 1 -42.534 42.534z" fill="#46bee8"/><path d="m70.38 275.45-20.93 20.93a10 10 0 0 0 -.61 13.47l14.2 17.03a90.715 90.715 0 0 1 37.84-37.84l-17.03-14.2a10 10 0 0 0 -13.47.61z" fill="#17afde"/><path d="m63.04 411.12-14.2 17.03a10 10 0 0 0 .61 13.47l20.93 20.92a9.995 9.995 0 0 0 13.47.62l17.03-14.2a90.715 90.715 0 0 1 -37.84-37.84z" fill="#17afde"/><path d="m52.6 369a90.335 90.335 0 0 1 4.04-26.76l-22.05 2.01a9.993 9.993 0 0 0 -9.09 9.96v29.58a9.993 9.993 0 0 0 9.09 9.96l22.05 2.01a90.335 90.335 0 0 1 -4.04-26.76z" fill="#17afde"/><path d="m143 314a55 55 0 1 0 55 55 55.061 55.061 0 0 0 -55-55zm0 80a25 25 0 1 1 25-25 25.03 25.03 0 0 1 -25 25z" fill="#17afde"/><path d="m436.5 100.5v206.286l20.467 43.974a5 5 0 0 0 9.066 0l20.467-43.974v-206.286z" fill="#ffb155"/><path d="m486.5 70.5h-50v-20a25 25 0 0 1 25-25 25 25 0 0 1 25 25z" fill="#f4644d" fill-rule="evenodd"/><path d="m436.5 70.5h50v30h-50z" fill="#e6f0f6"/><path d="m436.5 70.5h20v30h-20z" fill="#aacfe2"/><path d="m471.5 339.01-5.47 11.75a5 5 0 0 1 -9.06 0l-20.47-43.97v-206.29h20v206.29z" fill="#f19b40"/><path d="m456.5 26v44.5h-20v-20a25.009 25.009 0 0 1 20-24.5z" fill="#e8533a" fill-rule="evenodd"/><g fill="#525651"><path d="m143 431.5a62.5 62.5 0 1 1 35.54-113.89 7.5 7.5 0 1 1 -8.549 12.326 47.512 47.512 0 1 0 13.452 14.177 7.5 7.5 0 0 1 12.76-7.886 62.481 62.481 0 0 1 -53.203 95.273zm0-30a32.5 32.5 0 1 1 32.5-32.5 32.537 32.537 0 0 1 -32.5 32.5zm0-50a17.5 17.5 0 1 0 17.5 17.5 17.52 17.52 0 0 0 -17.5-17.5z"/><path d="m461.5 370a7.5 7.5 0 0 0 -7.5 7.5v37.666a12.514 12.514 0 0 1 -12.5 12.5h-195.927a17.7 17.7 0 0 0 -2.655-4.318l-11.074-13.287q1.661-3.577 3.026-7.275l17.214-1.565a17.417 17.417 0 0 0 15.916-17.428v-29.587a17.417 17.417 0 0 0 -15.915-17.428l-17.215-1.565q-1.362-3.69-3.026-7.275l11.074-13.289a17.415 17.415 0 0 0 -1.069-23.576l-20.921-20.921a17.415 17.415 0 0 0 -23.578-1.07l-13.288 11.075q-3.579-1.662-7.275-3.027l-1.565-17.214a17.416 17.416 0 0 0 -17.428-15.916h-29.588a17.414 17.414 0 0 0 -17.427 15.915l-1.566 17.215q-3.688 1.362-7.275 3.027l-13.288-11.075a17.417 17.417 0 0 0 -23.578 1.07l-20.921 20.921a17.416 17.416 0 0 0 -1.069 23.577l11.074 13.288q-1.66 3.579-3.026 7.275l-17.215 1.565a17.417 17.417 0 0 0 -15.915 17.428v29.587a17.417 17.417 0 0 0 15.915 17.429l17.215 1.565q1.362 3.69 3.026 7.275l-11.074 13.288a17.418 17.418 0 0 0 1.069 23.578l20.921 20.92a17.418 17.418 0 0 0 23.578 1.07l13.288-11.075q3.579 1.662 7.275 3.027l1.565 17.214a17.415 17.415 0 0 0 17.428 15.916h29.588a17.413 17.413 0 0 0 17.427-15.915l1.566-17.215q3.689-1.362 7.275-3.027l13.289 11.075a17.414 17.414 0 0 0 23.577-1.07l20.921-20.92a17.657 17.657 0 0 0 3.134-4.261h196.517a27.532 27.532 0 0 0 27.5-27.5v-37.667a7.5 7.5 0 0 0 -7.5-7.5zm-230.258 66.32-20.922 20.922a2.488 2.488 0 0 1 -3.367.152l-17.043-14.2a7.5 7.5 0 0 0 -8.311-.866 82.207 82.207 0 0 1 -14.062 5.851 7.5 7.5 0 0 0 -5.247 6.484l-2.008 22.067a2.486 2.486 0 0 1 -2.488 2.27h-29.588a2.487 2.487 0 0 1 -2.489-2.274l-2.007-22.066a7.5 7.5 0 0 0 -5.247-6.484 82.207 82.207 0 0 1 -14.062-5.851 7.5 7.5 0 0 0 -8.311.866l-17.042 14.2a2.487 2.487 0 0 1 -3.368-.152l-20.921-20.918a2.487 2.487 0 0 1 -.154-3.368l14.2-17.043a7.5 7.5 0 0 0 .866-8.312 82.077 82.077 0 0 1 -5.851-14.061 7.5 7.5 0 0 0 -6.483-5.247l-22.068-2.007a2.488 2.488 0 0 1 -2.269-2.49v-29.587a2.487 2.487 0 0 1 2.274-2.489l22.067-2.007a7.5 7.5 0 0 0 6.483-5.247 82.107 82.107 0 0 1 5.851-14.063 7.5 7.5 0 0 0 -.866-8.311l-14.2-17.043a2.487 2.487 0 0 1 .154-3.368l20.917-20.92a2.488 2.488 0 0 1 3.367-.152l17.043 14.2a7.5 7.5 0 0 0 8.311.867 82.075 82.075 0 0 1 14.062-5.85 7.5 7.5 0 0 0 5.247-6.484l2.008-22.068a2.486 2.486 0 0 1 2.488-2.271h29.588a2.487 2.487 0 0 1 2.489 2.274l2.007 22.067a7.5 7.5 0 0 0 5.247 6.484 82.075 82.075 0 0 1 14.062 5.85 7.5 7.5 0 0 0 8.311-.867l17.043-14.2a2.486 2.486 0 0 1 3.367.152l20.921 20.921a2.487 2.487 0 0 1 .154 3.368l-14.2 17.043a7.5 7.5 0 0 0 -.866 8.311 82.107 82.107 0 0 1 5.851 14.062 7.5 7.5 0 0 0 6.483 5.247l22.067 2.007a2.487 2.487 0 0 1 2.27 2.487v29.587a2.488 2.488 0 0 1 -2.274 2.49l-22.067 2.007a7.5 7.5 0 0 0 -6.483 5.247 82.077 82.077 0 0 1 -5.851 14.061 7.5 7.5 0 0 0 .866 8.312l14.2 17.042a2.489 2.489 0 0 1 -.149 3.369z"/><path d="m294.41 186.88v13.5h-22.5a12.514 12.514 0 0 0 -12.5 12.5v42a12.515 12.515 0 0 0 12.5 12.5h130a12.514 12.514 0 0 0 12.5-12.5v-121a12.514 12.514 0 0 0 -12.5-12.5h-25a12.514 12.514 0 0 0 -12.5 12.5v13.5h-22.5a12.514 12.514 0 0 0 -12.5 12.5v14.5h-22.5a12.514 12.514 0 0 0 -12.5 12.5zm0 65.5h-20v-37h20zm85-97.5v-18.5h20v116h-20zm-35 27v-19.5h20v90h-20zm-35 26v-18.5h20v63h-20z"/><circle cx="411.264" cy="74.169" r="7.5"/><circle cx="332.264" cy="74.169" r="7.5"/><circle cx="253.264" cy="74.169" r="7.5"/><circle cx="174.264" cy="74.169" r="7.5"/><path d="m115.534 187.668a7.5 7.5 0 0 0 7.5 7.5h110a7.5 7.5 0 0 0 0-15h-110a7.5 7.5 0 0 0 -7.5 7.5z"/><path d="m163.755 214.169a7.5 7.5 0 0 0 0 15h39.134a7.5 7.5 0 0 0 0-15z"/><path d="m123.034 229.169h17.5a7.5 7.5 0 0 0 0-15h-17.5a7.5 7.5 0 0 0 0 15z"/><path d="m143.534 153.664a7.5 7.5 0 0 0 7.5 7.5h82a7.5 7.5 0 0 0 0-15h-82a7.5 7.5 0 0 0 -7.5 7.5z"/><circle cx="130.534" cy="153.669" r="7.5"/><circle cx="225.534" cy="221.669" r="7.5"/><path d="m404.41 347.5a7.5 7.5 0 0 0 -7.5-7.5h-110a7.5 7.5 0 0 0 0 15h110a7.5 7.5 0 0 0 7.5-7.5z"/><path d="m327.632 374a7.5 7.5 0 0 0 0 15h39.133a7.5 7.5 0 0 0 0-15z"/><path d="m286.91 374a7.5 7.5 0 0 0 0 15h17.5a7.5 7.5 0 0 0 0-15z"/><path d="m396.91 306h-82a7.5 7.5 0 0 0 0 15h82a7.5 7.5 0 0 0 0-15z"/><path d="m294.41 321a7.5 7.5 0 1 0 -7.5-7.5 7.5 7.5 0 0 0 7.5 7.5z"/><path d="m381.91 381.5a7.5 7.5 0 1 0 7.5-7.5 7.5 7.5 0 0 0 -7.5 7.5z"/><path d="m461.5 18a32.55 32.55 0 0 0 -30.637 21.668h-284.03a7.5 7.5 0 0 0 -5.3 2.2l-70 70a7.5 7.5 0 0 0 -2.2 5.3v133.381a7.5 7.5 0 0 0 15 0v-125.881h42.5a27.531 27.531 0 0 0 27.5-27.5v-42.5h274.667v252.118a7.51 7.51 0 0 0 .7 3.165l20.468 43.975a12.5 12.5 0 0 0 22.665 0l20.467-43.975a7.51 7.51 0 0 0 .7-3.165v-256.286a32.536 32.536 0 0 0 -32.5-32.5zm-334.667 91.668h-31.894l44.394-44.393v31.893a12.514 12.514 0 0 1 -12.5 12.5zm352.167 195.458-17.5 37.6-17.5-37.6v-197.126h35zm0-212.126h-35v-15h35zm0-30h-35v-12.5a17.5 17.5 0 0 1 35 0z"/></g></svg>